<svg xmlns="http://www.w3.org/2000/svg" xmlns:xlink="http://www.w3.org/1999/xlink" viewBox="0 0 109 154" fill="#fff" fill-rule="evenodd" stroke="#000" stroke-linecap="round" stroke-linejoin="round"><style><![CDATA[.B{stroke:none}.C{fill:#fdcc9b}.D{text-anchor:start}.E{font-weight:bold}.F{fill:#262626}]]></style><use xlink:href="#A" x=".5" y=".5"/><symbol id="A" overflow="visible"><g class="B"><path d="M53.976 152.5H0c0-11.329 28.431-27.989 53.976-27.989s53.976 16.66 53.976 27.989z" fill="#f06292"/><path d="M53.976 124.511c-5.433 0-10.997.76-16.39 2.055.036.048 5.982 7.719 16.39 7.719 9.638 0 16.045-6.569 16.974-7.579-5.575-1.384-11.344-2.195-16.974-2.195z" fill="#d81b60"/><path d="M92.952 70q9.5 0 9.5 9-1.5 13-13 12 0-21 3.5-21z" class="C"/></g><path d="M13.952 70q-9.5 0-9.5 9 1.5 13 13 12 0-21-3.5-21z" class="B C"/><g class="B"><path d="M97.07 52.318c0-18.214-13.328-31.543-43.093-31.543S10.883 34.103 10.883 52.318s-3.11 66.196 43.094 66.196S97.07 70.533 97.07 52.318z" class="C"/><path d="M25.524 60.315c2.206 1.103 5.748-3.748 13.856.472 1.478.769 2.36-6.58-6.331-6.58-7.525 0-8.858 5.442-7.525 6.108zm56.904 0c-2.206 1.103-5.748-3.748-13.855.472-1.478.769-2.36-6.58 6.331-6.58 7.524 0 8.857 5.442 7.524 6.108z" class="F"/><path d="M52.827 91.375c-4.61 0-6.237-4.871-6.237-3.205s1.333 4.832 7.386 4.832 7.386-3.165 7.386-4.832-3.285 4.705-7.285 2.58z" fill="#fcbc85"/><path d="M28.822 72.976c0-2.831 1.479-5.109 3.315-5.109s3.315 2.279 3.315 5.109-1.479 5.109-3.315 5.109-3.315-2.279-3.315-5.109zm43.5-.585c0-2.831 1.478-5.109 3.315-5.109s3.315 2.279 3.315 5.109-1.479 5.109-3.315 5.109-3.315-2.279-3.315-5.109z" fill="#000"/><g fill="#646464"><circle cx="31.39" cy="71.438" r="1.438"/><circle cx="74.64" cy="71.188" r="1.438"/></g><path d="M53.462 107.13c-2.425 0-3.282-1.109-3.282-.73s.701 1.1 3.886 1.1 3.886-.721 3.886-1.1-1.728 1.071-3.833.587z" fill="#fcbc85"/><path d="M42.452 116.5v9.25q12 10 22.75-.25V117z" class="C"/></g><g class="B"><path d="M64.77 101.586a.84.84 0 0 0-.697-.019 25.76 25.76 0 0 1-9.552 1.933c-5.233 0-9.51-1.914-9.552-1.933-.21-.095-.502-.087-.697.019s-.239.283-.103.419c.142.143 3.532 3.496 10.353 3.496s10.212-3.352 10.353-3.496c.135-.137.092-.312-.103-.419" fill="#f7945e"/><path d="M94.438 69.153c0 2.128-1.093 11.703-1.093 13.831 1.64 1.064 2.187 0 2.734-2.128 3.28-20.214 4.374-25.534 4.374-34.576-1.094-16.49-1.64-32.449-13.121-31.917C85.69 7.447 65.462.532 40.859 0c-3.28 1.596 11.481 7.979 7.654 8.511C37.032 6.915 25.005 6.915 15.71 9.575c-3.28 1.596 13.121 5.32 9.294 7.447C14.617 20.746 6.963 27.661 8.056 40.96c.547 6.383 0 22.874 3.827 42.556.547 1.064 2.734.532 2.734-1.596s-.547-18.086 0-21.278c1.094-15.426 13.668-17.554 23.509-15.426 25.149 3.192 39.911-1.064 44.284-4.255 8.748 4.255 13.121 12.767 12.028 28.193z" class="F"/></g><path d="M14 72c-4.857 2.651.534 4-1.5 4s-.5 4.944-.5 7.349c0 7.334 2.248 14.265 6.055 20.261a42.19 42.19 0 0 0 8.689 9.832c3.604 2.992 7.716 5.428 12.193 7.15.182.353.361.713.555 1.052.272.475.561.933.857 1.37 1.81 2.663 4.023 4.485 6.639 4.485h15.024c2.615 0 4.833-1.818 6.639-4.485a23.27 23.27 0 0 0 .857-1.37c.194-.341.373-.699.553-1.052a43.68 43.68 0 0 0 12.193-7.15c3.41-2.827 6.348-6.148 8.69-9.832 3.81-5.996 4.555-10.776 4.555-18.11 0-2.405 2.534-17 .5-17s-.645 6.651-3.5 15.5c0 10.488-9.281 19.522-18.674 25.303.454-2.3.692-4.354.692-5.771 0-.375-.026-.747-.049-1.117a18.09 18.09 0 0 0 .049-1.179c0-6.354-3.41-11.767-8.178-13.855-1.352-.592-2.805-.933-4.328-.933H46.987c-1.523 0-2.976.341-4.328.933-4.764 2.088-8.176 7.504-8.176 13.855 0 .379.022.78.049 1.179-.024.367-.049.742-.049 1.117 0 1.424.24 3.474.692 5.771C25.783 103.522 24 102 17.5 89zm33 22h15c3.134 0 5.722 4.979 6.128 8.553-.531 4.822-3.733 10.603-6.112 10.603h-4.36v-1.019c0-2.054-1.416 1.363-3.156 1.363s-5.5-3.054-5.5-1l2.352.656h-4.361c-2.385 0-5.587-5.781-6.114-10.605C41.283 98.979 43.866 94 47 94z" class="B F"/></symbol></svg>